<svg width="20" height="20" viewBox="0 0 20 20" fill="none" xmlns="http://www.w3.org/2000/svg">
<path d="M2.49999 2.41663H8.33332C8.37486 2.41663 8.39726 2.42346 8.40523 2.42653C8.40562 2.42668 8.40598 2.42682 8.40632 2.42696C8.40646 2.4273 8.4066 2.42766 8.40675 2.42805C8.40982 2.43602 8.41666 2.45842 8.41666 2.49996V8.33329C8.41666 8.37483 8.40982 8.39723 8.40675 8.4052C8.4066 8.40559 8.40646 8.40595 8.40632 8.40629C8.40598 8.40643 8.40562 8.40657 8.40523 8.40672C8.39726 8.40979 8.37486 8.41663 8.33332 8.41663H2.49999C2.45845 8.41663 2.43606 8.40979 2.42808 8.40672C2.42769 8.40657 2.42733 8.40643 2.42699 8.40629C2.42685 8.40595 2.42671 8.40559 2.42656 8.4052C2.42349 8.39723 2.41666 8.37483 2.41666 8.33329V2.49996C2.41666 2.45842 2.42349 2.43602 2.42656 2.42805C2.42671 2.42766 2.42685 2.4273 2.42699 2.42696C2.42733 2.42682 2.42769 2.42668 2.42808 2.42653C2.43606 2.42346 2.45845 2.41663 2.49999 2.41663ZM2.49999 11.5833H8.33332C8.37486 11.5833 8.39726 11.5901 8.40523 11.5932C8.40562 11.5933 8.40598 11.5935 8.40632 11.5936C8.40646 11.594 8.4066 11.5943 8.40675 11.5947C8.40982 11.6027 8.41666 11.6251 8.41666 11.6666V17.5C8.41666 17.5415 8.40982 17.5639 8.40675 17.5719C8.4066 17.5723 8.40646 17.5726 8.40632 17.573C8.40598 17.5731 8.40562 17.5732 8.40523 17.5734C8.39726 17.5765 8.37486 17.5833 8.33332 17.5833H2.49999C2.45845 17.5833 2.43606 17.5765 2.42808 17.5734C2.42769 17.5732 2.42733 17.5731 2.42699 17.573C2.42685 17.5726 2.42671 17.5723 2.42656 17.5719C2.42349 17.5639 2.41666 17.5415 2.41666 17.5V11.6666C2.41666 11.6251 2.42349 11.6027 2.42656 11.5947C2.42671 11.5943 2.42685 11.594 2.42699 11.5936C2.42733 11.5935 2.42769 11.5933 2.42808 11.5932C2.43606 11.5901 2.45845 11.5833 2.49999 11.5833ZM11.6667 2.41663H17.5C17.5415 2.41663 17.5639 2.42346 17.5719 2.42653C17.5723 2.42668 17.5726 2.42682 17.573 2.42696C17.5731 2.4273 17.5733 2.42766 17.5734 2.42805C17.5765 2.43602 17.5833 2.45842 17.5833 2.49996V8.33329C17.5833 8.37483 17.5765 8.39723 17.5734 8.4052C17.5733 8.40559 17.5731 8.40595 17.573 8.40629C17.5726 8.40643 17.5723 8.40657 17.5719 8.40672C17.5639 8.40979 17.5415 8.41663 17.5 8.41663H11.6667C11.6251 8.41663 11.6027 8.40979 11.5947 8.40672C11.5944 8.40657 11.594 8.40643 11.5937 8.40629C11.5935 8.40595 11.5934 8.40559 11.5932 8.4052C11.5902 8.39723 11.5833 8.37483 11.5833 8.33329V2.49996C11.5833 2.45842 11.5902 2.43602 11.5932 2.42805C11.5934 2.42766 11.5935 2.4273 11.5937 2.42696C11.594 2.42682 11.5944 2.42668 11.5947 2.42653C11.6027 2.42346 11.6251 2.41663 11.6667 2.41663ZM11.6667 11.5833H17.5C17.5415 11.5833 17.5639 11.5901 17.5719 11.5932C17.5723 11.5933 17.5726 11.5935 17.573 11.5936C17.5731 11.594 17.5733 11.5943 17.5734 11.5947C17.5765 11.6027 17.5833 11.6251 17.5833 11.6666V17.5C17.5833 17.5415 17.5765 17.5639 17.5734 17.5719C17.5733 17.5723 17.5731 17.5726 17.573 17.573C17.5726 17.5731 17.5723 17.5732 17.5719 17.5734C17.5639 17.5765 17.5415 17.5833 17.5 17.5833H11.6667C11.6251 17.5833 11.6027 17.5765 11.5947 17.5734C11.5944 17.5732 11.594 17.5731 11.5937 17.573C11.5935 17.5726 11.5934 17.5723 11.5932 17.5719C11.5902 17.5639 11.5833 17.5415 11.5833 17.5V11.6666C11.5833 11.6251 11.5902 11.6027 11.5932 11.5947C11.5934 11.5943 11.5935 11.594 11.5937 11.5936C11.594 11.5935 11.5944 11.5933 11.5947 11.5932C11.6027 11.5901 11.6251 11.5833 11.6667 11.5833Z" stroke="#5C5C5C" stroke-width="1.5"/>
</svg>
