<svg width="20" height="20" viewBox="0 0 20 20" fill="none" xmlns="http://www.w3.org/2000/svg">
<path d="M18.2621 9.71998C17.5434 6.47076 16.4774 4.3981 14.7688 3.89302C14.4378 3.79649 14.0947 3.74834 13.75 3.75005C12.6996 3.75005 11.8707 4.37505 10 4.37505C8.12931 4.37505 7.29884 3.75005 6.25001 3.75005C5.89092 3.74815 5.53332 3.79627 5.18751 3.89302C3.47657 4.3981 2.41954 6.47271 1.69259 9.71998C0.9504 13.0368 1.08478 15.6575 2.53556 16.1606C3.55118 16.5122 4.45938 15.7852 5.31954 14.7153C6.2961 13.4965 7.49884 13.1215 10 13.1215C12.5012 13.1215 13.657 13.4965 14.6352 14.7153C15.4945 15.786 16.4363 16.504 17.425 16.1669C19.0274 15.6196 19.0047 13.0758 18.2621 9.71998Z" stroke="#088A5E" stroke-width="1.25" stroke-miterlimit="10"/>
<path d="M11.4062 9.53125C11.8377 9.53125 12.1875 9.18147 12.1875 8.75C12.1875 8.31853 11.8377 7.96875 11.4062 7.96875C10.9748 7.96875 10.625 8.31853 10.625 8.75C10.625 9.18147 10.9748 9.53125 11.4062 9.53125Z" fill="#088A5E"/>
<path d="M13.125 11.25C12.9704 11.25 12.8193 11.2041 12.6908 11.1182C12.5622 11.0323 12.4621 10.9101 12.403 10.7673C12.344 10.6244 12.3286 10.4672 12.3589 10.3156C12.3892 10.164 12.4638 10.0248 12.5733 9.91563C12.6827 9.80645 12.8221 9.7322 12.9738 9.70227C13.1255 9.67235 13.2826 9.6881 13.4253 9.74753C13.568 9.80696 13.6899 9.9074 13.7755 10.0361C13.8611 10.1649 13.9066 10.3161 13.9062 10.4707C13.9057 10.6776 13.8232 10.8758 13.6767 11.0219C13.5303 11.168 13.3319 11.25 13.125 11.25Z" fill="#088A5E"/>
<path d="M13.125 7.8125C13.5565 7.8125 13.9062 7.46272 13.9062 7.03125C13.9062 6.59978 13.5565 6.25 13.125 6.25C12.6935 6.25 12.3438 6.59978 12.3438 7.03125C12.3438 7.46272 12.6935 7.8125 13.125 7.8125Z" fill="#088A5E"/>
<path d="M14.8438 9.53125C15.2752 9.53125 15.625 9.18147 15.625 8.75C15.625 8.31853 15.2752 7.96875 14.8438 7.96875C14.4123 7.96875 14.0625 8.31853 14.0625 8.75C14.0625 9.18147 14.4123 9.53125 14.8438 9.53125Z" fill="#088A5E"/>
<path d="M6.25 6.875V10.625M8.125 8.75H4.375" stroke="#088A5E" stroke-width="1.25" stroke-linecap="round" stroke-linejoin="round"/>
</svg>
