<svg width="20" height="20" viewBox="0 0 20 20" fill="none" xmlns="http://www.w3.org/2000/svg">
<path fill-rule="evenodd" clip-rule="evenodd" d="M9.41 2.75663C9.08166 3.18496 8.71166 3.84663 8.17333 4.81163L7.90083 5.30079L7.85166 5.38913C7.60166 5.83913 7.38916 6.22079 7.04833 6.47913C6.70416 6.74079 6.28416 6.83496 5.79583 6.94496L5.70083 6.96663L5.17083 7.08663C4.125 7.32329 3.4125 7.48579 2.92583 7.67829C2.45 7.86496 2.35 8.01913 2.31166 8.14163C2.27083 8.27163 2.27 8.47079 2.55333 8.92246C2.8425 9.38079 3.33 9.95246 4.04166 10.7858L4.40333 11.2083L4.46583 11.2808C4.80166 11.6725 5.08166 11.9991 5.21 12.4125C5.3375 12.8233 5.295 13.2541 5.24333 13.7775L5.235 13.875L5.18 14.4391C5.07166 15.5491 5 16.3141 5.02416 16.8641C5.04916 17.4141 5.165 17.5658 5.2575 17.6358C5.33916 17.6983 5.49083 17.7666 5.985 17.625C6.4875 17.4816 7.15583 17.1758 8.135 16.725L8.63166 16.4966L8.7225 16.455C9.17666 16.2441 9.57 16.0625 10 16.0625C10.43 16.0625 10.8233 16.2441 11.2775 16.4541C11.3069 16.4686 11.3375 16.4825 11.3692 16.4958L11.865 16.725C12.8442 17.1758 13.5125 17.4816 14.015 17.625C14.5092 17.7666 14.6608 17.6983 14.7425 17.6358C14.835 17.5658 14.9508 17.4133 14.9758 16.8641C15.0008 16.3141 14.9275 15.5491 14.82 14.4391L14.765 13.875L14.7567 13.7775C14.705 13.2541 14.6625 12.8233 14.79 12.4125C14.9183 11.9991 15.1983 11.6725 15.5342 11.2808L15.5967 11.2083L15.9583 10.7858C16.67 9.95246 17.1575 9.38079 17.4458 8.92246C17.73 8.47079 17.7292 8.27246 17.6883 8.14163C17.65 8.01913 17.55 7.86496 17.0742 7.67829C16.5867 7.48579 15.875 7.32329 14.8292 7.08663L14.2992 6.96663L14.2042 6.94496C13.7158 6.83496 13.2958 6.74079 12.9517 6.47913C12.61 6.22079 12.3992 5.83996 12.1483 5.38913L12.1 5.30079L11.8267 4.81163C11.2883 3.84663 10.9183 3.18496 10.59 2.75663C10.2617 2.32829 10.095 2.29163 10 2.29163C9.905 2.29163 9.7375 2.32829 9.41 2.75663ZM8.41833 1.99663C8.81416 1.47829 9.305 1.04163 10 1.04163C10.695 1.04163 11.185 1.47829 11.5825 1.99663C11.9725 2.50663 12.3867 3.24913 12.8925 4.15663L13.1917 4.69246C13.5183 5.27913 13.6025 5.40413 13.7075 5.48413C13.8075 5.55996 13.9383 5.60329 14.5742 5.74746L15.1575 5.87913C16.1375 6.10079 16.945 6.28329 17.5325 6.51496C18.1425 6.75579 18.6767 7.10996 18.8825 7.77079C19.0858 8.42496 18.8575 9.02663 18.5042 9.58746C18.1608 10.1333 17.6125 10.775 16.9425 11.5583L16.5467 12.0208C16.1158 12.5241 16.0258 12.6475 15.9833 12.7833C15.9408 12.9225 15.9442 13.0833 16.01 13.7541L16.0692 14.3691C16.1708 15.4158 16.2533 16.2691 16.2242 16.9191C16.195 17.5816 16.045 18.2166 15.4992 18.6316C14.9425 19.0533 14.295 19.0066 13.67 18.8266C13.0642 18.6533 12.3092 18.3058 11.3925 17.8833L10.8458 17.6316C10.2475 17.3566 10.12 17.3125 10 17.3125C9.88 17.3125 9.7525 17.3566 9.15416 17.6316L8.60833 17.8833C7.69083 18.3058 6.93583 18.6533 6.33 18.8266C5.705 19.0058 5.0575 19.0533 4.50166 18.6316C3.955 18.2166 3.805 17.5816 3.77583 16.92C3.74666 16.27 3.82916 15.4158 3.93083 14.37L3.99083 13.7541C4.05583 13.0825 4.05916 12.9225 4.01583 12.7833C3.97416 12.6475 3.88416 12.525 3.45333 12.0208L3.0575 11.5583C2.38833 10.775 1.84 10.1333 1.49666 9.58829C1.1425 9.02662 0.914162 8.42496 1.1175 7.77079C1.32333 7.10996 1.8575 6.75579 2.4675 6.51496C3.055 6.28329 3.8625 6.10079 4.8425 5.87913L4.895 5.86746L5.425 5.74746C6.06166 5.60329 6.19166 5.55996 6.2925 5.48329C6.3975 5.40413 6.48166 5.27913 6.80916 4.69246L7.1075 4.15663C7.61333 3.24829 8.0275 2.50663 8.4175 1.99663" fill="#5C5C5C"/>
</svg>
