<svg width="20" height="20" viewBox="0 0 20 20" fill="none" xmlns="http://www.w3.org/2000/svg">
<path d="M6.75012 19H18V2H3V19H6.75012ZM15.2504 3.17241H17V4.63793H15.2504V3.17241ZM15.2504 5.81034H17V7.27586H15.2504V5.81034ZM15.2504 8.44828H17V9.91379H15.2504V8.44828ZM15.2504 11.0862H17V12.5517H15.2504V11.0862ZM15.2504 13.7241H17V15.1897H15.2504V13.7241ZM15.2504 16.3621H17V17.8276H15.2504V16.3621ZM6.75012 8.44828V3.17241H14.2499V9.91379H6.75012V8.44828ZM6.75012 16.3621V11.0862H14.2499V17.8276H6.75012V16.3621ZM4.00003 3.17241H5.75009V4.63793H4.00003V3.17241ZM4.00003 5.81034H5.75009V7.27586H4.00003V5.81034ZM4.00003 8.44828H5.75009V9.91379H4.00003V8.44828ZM4.00003 11.0862H5.75009V12.5517H4.00003V11.0862ZM4.00003 13.7241H5.75009V15.1897H4.00003V13.7241ZM4.00003 16.3621H5.75009V17.8276H4.00003V16.3621Z" fill="#5C5C5C"/>
</svg>
