<svg width="16" height="16" viewBox="0 0 16 16" fill="none" xmlns="http://www.w3.org/2000/svg">
<path d="M8.00001 11.8467L12.12 14.3333L11.0267 9.64666L14.6667 6.49333L9.87334 6.08666L8.00001 1.66666L6.12668 6.08666L1.33334 6.49333L4.97334 9.64666L3.88001 14.3333L8.00001 11.8467Z" fill="#F0F3F4"/>
<g clip-path="url(#clip0_1_656)">
<path d="M14.6667 6.49333L9.87334 6.08L8.00001 1.66666L6.12668 6.08666L1.33334 6.49333L4.97334 9.64666L3.88001 14.3333L8.00001 11.8467L12.12 14.3333L11.0333 9.64666L14.6667 6.49333ZM8.00001 10.6V4.4L9.14001 7.09333L12.06 7.34666L9.84668 9.26666L10.5133 12.12L8.00001 10.6Z" fill="#00A172"/>
</g>
<defs>
<clipPath id="clip0_1_656">
<rect width="8" height="16" fill="white"/>
</clipPath>
</defs>
</svg>
